<?xml version="1.0" encoding="UTF-8" standalone="no"?>
<!DOCTYPE svg PUBLIC "-//W3C//DTD SVG 1.1//EN" "http://www.w3.org/Graphics/SVG/1.1/DTD/svg11.dtd">
<svg xmlns="http://www.w3.org/2000/svg" version="1.1" viewBox="0 0 717 348">
<path fill="#0f0f0f" d="
  M 337.24 118.28
  A 0.75 0.74 25.0 0 1 338.32 117.89
  L 372.85 138.66
  Q 374.24 139.50 372.72 140.10
  L 324.17 159.19
  Q 322.82 159.72 323.30 158.36
  L 337.24 118.28
  Z"
/>
<path fill="#0f0f0f" d="
  M 391.58 127.69
  Q 393.05 128.00 391.80 128.82
  L 379.60 136.87
  A 1.06 1.05 43.7 0 1 378.48 136.89
  L 350.05 119.83
  Q 348.28 118.77 350.30 119.19
  L 391.58 127.69
  Z"
/>
<path fill="#0f0f0f" d="
  M 328.95 126.18
  Q 330.50 124.29 329.70 126.60
  L 318.11 159.93
  A 1.97 1.94 -80.3 0 1 316.27 161.25
  L 301.48 161.25
  Q 300.04 161.25 300.97 160.13
  L 328.95 126.18
  Z"
/>
<path fill="#0f0f0f" d="
  M 396.62 130.88
  A 0.84 0.81 63.0 0 1 397.84 131.30
  Q 405.38 151.52 412.68 171.53
  C 412.82 171.91 414.75 174.76 413.95 174.76
  A 1.02 0.60 59.7 0 1 413.31 174.40
  L 383.40 141.23
  A 1.06 1.02 52.1 0 1 383.56 139.67
  L 396.62 130.88
  Z"
/>
<path fill="#0f0f0f" d="
  M 368.22 197.43
  L 324.42 164.67
  A 0.68 0.68 51.6 0 1 324.57 163.49
  L 375.51 143.53
  A 0.68 0.68 -19.6 0 1 376.43 144.26
  L 369.30 196.98
  A 0.68 0.68 23.4 0 1 368.22 197.43
  Z"
/>
<path fill="#0f0f0f" d="
  M 413.72 180.79
  Q 414.75 181.90 415.75 183.48
  A 0.46 0.46 -26.3 0 1 415.52 184.16
  L 374.22 199.85
  A 0.71 0.69 -6.6 0 1 373.27 199.11
  L 380.51 146.43
  Q 380.74 144.73 381.90 146.00
  Q 397.81 163.57 413.72 180.79
  Z"
/>
<path fill="#0f0f0f" d="
  M 316.76 166.24
  C 316.56 180.84 315.28 195.39 315.50 209.52
  Q 315.55 212.92 314.40 209.72
  L 298.88 166.47
  A 0.72 0.71 79.9 0 1 299.54 165.51
  L 316.10 165.56
  A 0.67 0.66 -89.6 0 1 316.76 166.24
  Z"
/>
<path fill="#0f0f0f" d="
  M 319.33 219.22
  C 319.82 202.60 321.23 185.48 321.00 168.71
  Q 320.98 167.36 322.05 168.18
  Q 343.14 184.28 364.59 199.87
  Q 365.78 200.73 366.51 202.01
  A 0.44 0.44 65.2 0 1 366.28 202.64
  L 320.22 219.86
  A 0.66 0.66 -9.3 0 1 319.33 219.22
  Z"
/>
<path fill="#0f0f0f" d="
  M 373.48 205.14
  A 0.68 0.67 -16.7 0 1 373.90 204.37
  L 411.29 190.25
  Q 413.27 189.50 411.92 191.13
  L 380.71 228.73
  Q 379.90 229.71 379.76 228.45
  Q 379.59 226.93 378.96 225.01
  Q 375.72 215.10 373.48 205.14
  Z"
/>
<path fill="#0f0f0f" d="
  M 368.80 206.84
  C 370.03 207.61 374.97 227.05 375.69 229.79
  A 1.01 1.01 87.4 0 1 374.54 231.05
  Q 350.54 226.93 326.81 222.94
  C 326.24 222.84 326.18 222.21 326.84 221.96
  Q 347.16 214.34 367.59 206.72
  A 1.38 1.35 -38.8 0 1 368.80 206.84
  Z"
/>
<path fill="#101010" d="
  M 224.87 246.22
  C 228.43 248.36 228.21 253.28 224.84 255.41
  Q 223.55 256.22 220.48 256.37
  C 212.47 256.77 204.23 254.99 198.54 258.92
  C 191.11 264.04 192.62 273.78 200.48 277.36
  C 204.47 279.18 210.31 278.83 215.12 278.80
  A 1.33 1.33 85.2 0 0 216.43 277.25
  C 214.38 265.21 227.31 263.43 227.43 273.00
  C 227.49 278.36 229.96 289.76 221.50 289.75
  C 213.78 289.75 204.02 290.66 197.41 288.37
  C 178.57 281.86 177.25 255.47 196.16 247.22
  C 202.98 244.24 213.48 245.13 221.56 245.27
  Q 223.34 245.30 224.87 246.22
  Z"
/>
<path fill="#101010" d="
  M 254.28 258.84
  Q 259.88 253.00 266.00 247.50
  C 272.76 241.42 278.79 250.01 273.72 254.97
  Q 266.50 262.02 259.42 269.20
  A 1.56 1.40 -21.8 0 0 259.00 270.05
  Q 258.39 274.84 259.25 281.25
  C 260.56 291.00 247.50 294.06 247.50 282.13
  C 247.50 278.64 248.54 270.32 245.85 267.89
  C 242.62 264.99 230.74 254.81 230.68 250.75
  C 230.63 247.47 234.00 244.55 237.24 245.42
  C 240.82 246.39 249.16 255.82 252.25 258.87
  A 1.42 1.42 -45.8 0 0 254.28 258.84
  Z"
/>
<path fill="#101010" d="
  M 312.69 266.19
  Q 312.68 264.17 311.34 265.69
  C 309.02 268.34 304.92 273.19 301.34 273.28
  C 297.72 273.37 293.70 267.91 291.24 265.49
  Q 290.00 264.27 290.00 266.01
  Q 289.99 273.98 290.00 282.13
  C 290.00 288.26 286.55 291.80 280.26 288.41
  Q 278.54 287.48 278.58 285.52
  Q 278.89 270.22 278.75 254.25
  C 278.72 250.67 278.46 247.79 281.95 245.93
  Q 285.43 244.09 288.80 247.45
  Q 294.56 253.19 300.77 259.40
  A 0.86 0.86 44.8 0 0 301.98 259.40
  Q 307.11 254.26 311.87 249.50
  C 315.05 246.33 318.90 242.80 322.46 247.35
  Q 323.74 249.00 323.81 252.01
  Q 324.08 265.35 323.79 278.70
  C 323.75 280.47 324.39 283.50 323.55 285.92
  C 322.03 290.32 316.63 291.11 314.05 287.44
  C 311.58 283.94 312.72 270.58 312.69 266.19
  Z"
/>
<path fill="#101010" d="
  M 384.09 249.91
  Q 390.61 257.05 385.95 266.03
  Q 385.09 267.69 386.00 269.33
  C 392.00 280.04 383.56 289.75 372.25 289.75
  Q 360.75 289.75 349.25 289.84
  Q 343.06 289.89 342.97 283.75
  Q 342.75 267.50 342.75 251.25
  C 342.75 247.12 345.44 245.55 349.37 245.41
  Q 367.98 244.70 376.75 245.50
  Q 380.37 245.83 384.09 249.91
  Z
  M 376.7267 257.3202
  A 0.90 0.90 0.0 0 0 375.8251 256.4218
  L 354.9252 256.4582
  A 0.90 0.90 0.0 0 0 354.0267 257.3598
  L 354.0333 261.1198
  A 0.90 0.90 0.0 0 0 354.9349 262.0182
  L 375.8348 261.9818
  A 0.90 0.90 0.0 0 0 376.7333 261.0802
  L 376.7267 257.3202
  Z
  M 376.71 274.00
  A 0.83 0.83 0.0 0 0 375.88 273.17
  L 354.88 273.17
  A 0.83 0.83 0.0 0 0 354.05 274.00
  L 354.05 277.94
  A 0.83 0.83 0.0 0 0 354.88 278.77
  L 375.88 278.77
  A 0.83 0.83 0.0 0 0 376.71 277.94
  L 376.71 274.00
  Z"
/>
<path fill="#101010" d="
  M 408.00 289.82
  C 401.37 290.00 391.27 286.39 391.15 278.25
  Q 391.00 267.88 390.98 257.50
  C 390.97 250.23 398.84 245.73 405.24 245.32
  C 415.73 244.63 436.53 243.76 436.23 258.00
  Q 436.03 267.64 436.00 277.29
  C 435.97 291.73 416.93 289.57 408.00 289.82
  Z
  M 425.3920 257.2994
  A 0.85 0.85 0.0 0 0 424.5405 256.4509
  L 402.5806 256.4892
  A 0.85 0.85 0.0 0 0 401.7321 257.3407
  L 401.7680 277.9206
  A 0.85 0.85 0.0 0 0 402.6195 278.7691
  L 424.5794 278.7308
  A 0.85 0.85 0.0 0 0 425.4279 277.8793
  L 425.3920 257.2994
  Z"
/>
<path fill="#101010" d="
  M 471.61 278.94
  A 1.46 1.45 7.1 0 0 473.08 277.80
  Q 473.50 275.85 472.62 273.52
  A 0.72 0.67 -10.7 0 0 471.93 273.08
  C 462.60 273.42 440.52 275.91 439.20 261.50
  C 438.02 248.55 446.97 245.58 457.95 245.33
  C 462.55 245.23 479.00 244.09 482.12 246.46
  C 485.18 248.77 484.92 253.39 481.64 255.30
  Q 480.05 256.24 476.67 256.31
  Q 463.99 256.60 451.31 256.57
  A 0.75 0.68 9.9 0 0 450.61 257.01
  Q 449.96 258.70 450.72 261.27
  A 1.03 1.02 81.6 0 0 451.70 262.00
  C 462.40 262.00 484.98 258.64 484.25 276.50
  C 484.10 280.17 484.17 281.87 481.48 284.57
  Q 476.30 289.76 468.50 289.76
  Q 457.68 289.75 446.85 289.75
  Q 443.17 289.75 441.75 289.06
  C 438.28 287.37 438.48 281.43 441.87 279.68
  Q 443.15 279.02 446.23 278.92
  Q 458.90 278.47 471.61 278.94
  Z"
/>
<path fill="#101010" d="
  M 521.24 273.89
  A 1.00 1.00 83.6 0 0 520.20 273.06
  C 511.75 273.49 490.07 275.56 487.66 263.30
  C 485.55 252.59 491.90 245.76 502.50 245.43
  C 507.64 245.28 527.23 243.90 530.57 246.70
  C 536.17 251.39 530.20 256.16 525.12 256.34
  Q 512.88 256.78 500.07 256.22
  A 1.48 1.33 0.1 0 0 498.52 257.61
  L 498.70 261.25
  A 0.93 0.78 -1.0 0 0 499.62 262.00
  C 512.72 262.00 537.33 258.73 532.00 281.50
  C 529.34 292.88 500.99 289.75 492.50 289.75
  C 485.86 289.75 485.04 279.16 494.33 278.94
  Q 507.38 278.64 520.43 278.68
  A 0.64 0.61 6.7 0 0 521.06 278.20
  Q 521.60 275.95 521.24 273.89
  Z"
/>
</svg>
