<?xml version="1.0" encoding="UTF-8" standalone="no"?>
<!DOCTYPE svg PUBLIC "-//W3C//DTD SVG 1.1//EN" "http://www.w3.org/Graphics/SVG/1.1/DTD/svg11.dtd">
<svg xmlns="http://www.w3.org/2000/svg" version="1.1" viewBox="0 0 724 344">
<g stroke-width="2.00" fill="none" stroke-linecap="butt">
<path stroke="#7e7e7e" vector-effect="non-scaling-stroke" d="
  M 529.10 96.17
  A 9.74 9.74 0.0 0 0 519.36 86.43
  A 9.74 9.74 0.0 0 0 509.62 96.17
  A 9.74 9.74 0.0 0 0 519.36 105.91
  A 9.74 9.74 0.0 0 0 529.10 96.17"
/>
<path stroke="#dadada" vector-effect="non-scaling-stroke" d="
  M 524.93 96.14
  A 5.61 5.61 0.0 0 0 519.32 90.53
  A 5.61 5.61 0.0 0 0 513.71 96.14
  A 5.61 5.61 0.0 0 0 519.32 101.75
  A 5.61 5.61 0.0 0 0 524.93 96.14"
/>
</g>
<path fill="#464646" d="
  M 533.00 96.27
  A 13.60 13.60 0.0 0 1 519.40 109.87
  A 13.60 13.60 0.0 0 1 505.80 96.27
  A 13.60 13.60 0.0 0 1 519.40 82.67
  A 13.60 13.60 0.0 0 1 533.00 96.27
  Z
  M 529.10 96.17
  A 9.74 9.74 0.0 0 0 519.36 86.43
  A 9.74 9.74 0.0 0 0 509.62 96.17
  A 9.74 9.74 0.0 0 0 519.36 105.91
  A 9.74 9.74 0.0 0 0 529.10 96.17
  Z"
/>
<path fill="#b5b5b5" d="
  M 529.10 96.17
  A 9.74 9.74 0.0 0 1 519.36 105.91
  A 9.74 9.74 0.0 0 1 509.62 96.17
  A 9.74 9.74 0.0 0 1 519.36 86.43
  A 9.74 9.74 0.0 0 1 529.10 96.17
  Z
  M 524.93 96.14
  A 5.61 5.61 0.0 0 0 519.32 90.53
  A 5.61 5.61 0.0 0 0 513.71 96.14
  A 5.61 5.61 0.0 0 0 519.32 101.75
  A 5.61 5.61 0.0 0 0 524.93 96.14
  Z"
/>
<circle fill="#ffffff" cx="519.32" cy="96.14" r="5.61"/>
<path fill="#ffffff" d="
  M 326.94 93.17
  A 0.68 0.68 -64.7 0 1 327.93 92.81
  L 357.42 110.46
  Q 358.66 111.20 357.31 111.72
  L 315.43 127.94
  Q 314.76 128.20 314.99 127.52
  L 326.94 93.17
  Z"
/>
<path fill="#ffffff" d="
  M 373.30 101.40
  Q 374.23 101.61 373.43 102.13
  L 363.37 108.67
  A 1.91 1.91 -46.0 0 1 361.35 108.71
  L 338.25 94.94
  A 0.51 0.36 37.9 0 1 338.04 94.25
  C 338.74 93.72 369.44 100.56 373.30 101.40
  Z"
/>
<path fill="#ffffff" d="
  M 320.04 100.21
  Q 321.05 98.98 320.53 100.49
  L 310.66 129.01
  A 1.09 1.06 -80.4 0 1 309.65 129.75
  L 296.65 129.75
  Q 295.68 129.75 296.30 129.00
  L 320.04 100.21
  Z"
/>
<path fill="#ffffff" d="
  M 378.27 104.14
  L 391.48 139.62
  A 0.34 0.34 -5.1 0 1 390.91 139.97
  L 365.49 111.91
  A 0.34 0.34 -36.5 0 1 365.56 111.39
  L 377.78 103.97
  A 0.34 0.34 -25.7 0 1 378.27 104.14
  Z"
/>
<path fill="#ffffff" d="
  M 353.50 160.55
  L 315.81 132.36
  A 0.34 0.34 51.8 0 1 315.89 131.77
  L 359.71 114.61
  A 0.34 0.34 -7.9 0 1 360.18 114.97
  L 354.04 160.32
  A 0.34 0.34 22.1 0 1 353.50 160.55
  Z"
/>
<path fill="#ffffff" d="
  M 363.85 117.34
  Q 364.05 115.93 365.01 116.99
  L 393.62 148.49
  A 0.36 0.36 59.0 0 1 393.48 149.07
  L 358.29 162.17
  A 0.49 0.49 -6.6 0 1 357.63 161.65
  L 363.85 117.34
  Z"
/>
<path fill="#ffffff" d="
  M 308.55 162.06
  C 308.50 162.98 308.71 171.59 308.51 171.61
  A 0.86 0.44 73.0 0 1 307.90 170.98
  L 294.72 134.03
  A 0.40 0.39 -12.6 0 1 295.06 133.51
  Q 302.12 132.84 309.19 133.51
  A 0.53 0.53 4.0 0 1 309.67 134.06
  Q 309.31 148.07 308.55 162.06
  Z"
/>
<path fill="#ffffff" d="
  M 352.14 164.49
  L 312.03 179.10
  A 0.31 0.31 -8.1 0 1 311.62 178.80
  L 313.57 136.16
  A 0.31 0.31 83.5 0 1 314.06 135.92
  L 352.22 163.95
  A 0.31 0.31 53.7 0 1 352.14 164.49
  Z"
/>
<path fill="#ffffff" d="
  M 363.97 186.51
  Q 363.22 187.42 362.89 186.26
  L 357.50 167.01
  A 0.43 0.41 72.6 0 1 357.75 166.50
  L 389.84 154.36
  Q 391.22 153.84 390.28 154.97
  L 363.97 186.51
  Z"
/>
<path fill="#ffffff" d="
  M 318.94 181.97
  Q 317.16 181.66 318.86 181.02
  L 352.89 168.11
  A 0.98 0.96 71.3 0 1 354.17 168.76
  L 359.82 188.23
  A 0.55 0.54 86.5 0 1 359.21 188.93
  L 318.94 181.97
  Z"
/>
<path fill="#ffffff" d="
  M 296.32 212.95
  A 0.77 0.77 -46.5 0 0 297.45 212.92
  Q 302.33 207.34 307.92 202.47
  C 311.57 199.29 315.47 201.33 315.52 205.92
  Q 315.65 219.59 315.74 233.25
  C 315.77 238.68 308.91 240.55 306.88 235.72
  C 305.28 231.92 306.25 222.38 306.25 217.95
  Q 306.25 217.16 305.67 217.69
  C 303.43 219.73 299.06 225.32 295.78 224.42
  C 293.02 223.66 289.96 220.32 288.03 218.15
  Q 286.79 216.77 286.79 218.65
  L 286.76 234.87
  Q 286.75 237.58 283.95 238.18
  C 278.21 239.42 277.50 235.46 277.49 230.84
  Q 277.47 219.16 277.54 207.47
  C 277.58 201.27 281.59 198.65 286.45 203.22
  Q 291.49 207.97 296.32 212.95
  Z"
/>
<path fill="#ffffff" d="
  M 415.28 206.26
  C 422.00 198.10 436.62 201.40 446.04 200.85
  C 453.28 200.42 453.54 209.82 446.51 210.05
  Q 435.71 210.42 424.14 210.24
  A 0.92 0.91 -83.6 0 0 423.22 210.98
  Q 422.29 215.39 425.38 215.10
  C 434.33 214.25 451.74 213.19 451.65 226.98
  C 451.58 236.92 443.13 238.49 434.55 238.62
  Q 425.80 238.75 417.13 238.50
  Q 414.35 238.43 413.82 235.70
  C 412.71 230.05 416.54 229.25 421.16 229.25
  Q 431.03 229.25 441.46 229.25
  A 0.72 0.72 -86.4 0 0 442.17 228.62
  Q 442.44 226.50 441.88 225.02
  A 0.75 0.70 -9.5 0 0 441.19 224.56
  C 431.60 224.60 422.83 225.66 416.71 220.79
  C 412.76 217.64 412.13 210.08 415.28 206.26
  Z"
/>
<path fill="#ffffff" d="
  M 454.50 214.00
  C 453.89 205.74 459.11 201.08 467.25 201.10
  Q 474.42 201.12 486.75 200.75
  C 494.08 200.53 494.71 209.82 486.95 210.07
  Q 476.28 210.42 464.90 210.24
  A 0.90 0.89 6.2 0 0 464.01 210.95
  C 463.07 215.61 464.22 215.03 468.08 214.97
  C 478.70 214.81 494.19 213.45 492.29 229.49
  Q 492.06 231.51 490.95 233.21
  C 486.13 240.61 469.96 238.47 461.85 238.64
  Q 458.57 238.71 457.33 238.29
  C 451.97 236.50 454.34 229.05 460.25 229.25
  Q 463.88 229.37 482.44 229.19
  A 0.79 0.68 8.2 0 0 483.16 228.73
  Q 483.37 228.12 483.18 227.46
  Q 483.03 226.94 483.09 226.52
  C 483.50 223.79 481.44 224.48 479.77 224.51
  C 469.84 224.71 455.38 225.90 454.50 214.00
  Z"
/>
<path fill="#ffffff" d="
  M 226.73 220.03
  C 229.87 217.65 233.92 220.37 233.96 224.25
  C 234.00 228.96 236.05 238.20 228.75 238.50
  C 221.83 238.78 213.71 239.41 207.93 237.19
  C 191.83 231.01 192.07 208.77 208.08 202.33
  C 213.61 200.11 222.05 200.99 228.50 200.96
  Q 234.61 200.92 233.75 207.00
  Q 233.35 209.83 230.25 210.00
  C 224.35 210.32 213.30 208.89 208.74 212.80
  C 201.52 218.99 206.49 228.37 214.99 229.07
  Q 218.62 229.37 223.87 229.20
  A 1.09 1.09 85.0 0 0 224.91 227.96
  C 224.52 225.03 224.22 221.93 226.73 220.03
  Z"
/>
<path fill="#ffffff" d="
  M 250.07 220.47
  Q 239.84 211.10 237.56 208.19
  C 234.08 203.74 240.50 197.92 245.40 203.10
  Q 250.23 208.20 255.62 212.68
  A 0.54 0.54 42.5 0 0 256.35 212.65
  C 259.00 210.02 266.12 201.84 269.34 201.01
  C 272.32 200.25 275.44 203.38 274.71 206.39
  C 273.94 209.57 264.13 217.84 261.15 220.69
  A 2.15 2.14 68.1 0 0 260.50 222.23
  Q 260.50 228.50 260.55 233.00
  C 260.64 240.50 250.31 240.53 250.98 232.00
  Q 251.40 226.61 250.52 221.31
  A 1.46 1.44 -73.5 0 0 250.07 220.47
  Z"
/>
<path fill="#ffffff" d="
  M 333.16 202.42
  Q 334.37 201.00 336.23 201.00
  Q 346.62 201.00 356.75 201.00
  C 366.81 201.00 372.97 209.26 368.08 218.65
  A 1.92 1.91 -42.7 0 0 368.01 220.30
  Q 372.48 230.88 364.25 236.75
  C 359.59 240.07 342.59 238.52 336.79 238.50
  C 334.09 238.50 332.05 236.93 331.97 234.20
  Q 331.58 221.27 331.74 208.33
  C 331.77 205.76 331.33 204.59 333.16 202.42
  Z
  M 360.5329 210.5464
  A 0.38 0.38 0.0 0 0 360.1515 210.1678
  L 341.6716 210.2323
  A 0.38 0.38 0.0 0 0 341.2930 210.6136
  L 341.3071 214.6736
  A 0.38 0.38 0.0 0 0 341.6885 215.0522
  L 360.1684 214.9877
  A 0.38 0.38 0.0 0 0 360.5470 214.6064
  L 360.5329 210.5464
  Z
  M 360.5901 224.8306
  A 0.53 0.53 0.0 0 0 360.0629 224.2978
  L 341.8031 224.2022
  A 0.53 0.53 0.0 0 0 341.2703 224.7294
  L 341.2499 228.6294
  A 0.53 0.53 0.0 0 0 341.7771 229.1622
  L 360.0369 229.2578
  A 0.53 0.53 0.0 0 0 360.5697 228.7306
  L 360.5901 224.8306
  Z"
/>
<path fill="#ffffff" d="
  M 410.77 227.05
  A 11.37 11.37 0.0 0 1 399.40 238.42
  L 384.08 238.42
  A 11.37 11.37 0.0 0 1 372.71 227.05
  L 372.71 212.41
  A 11.37 11.37 0.0 0 1 384.08 201.04
  L 399.40 201.04
  A 11.37 11.37 0.0 0 1 410.77 212.41
  L 410.77 227.05
  Z
  M 401.50 210.63
  A 0.39 0.39 0.0 0 0 401.11 210.24
  L 382.13 210.24
  A 0.39 0.39 0.0 0 0 381.74 210.63
  L 381.74 228.83
  A 0.39 0.39 0.0 0 0 382.13 229.22
  L 401.11 229.22
  A 0.39 0.39 0.0 0 0 401.50 228.83
  L 401.50 210.63
  Z"
/>
</svg>
